<svg width="94" height="120" viewBox="0 0 94 120" fill="none" xmlns="http://www.w3.org/2000/svg">
<path d="M35.078 119.376H3.596C3.12377 119.376 2.65616 119.283 2.21987 119.102C1.78358 118.922 1.38717 118.657 1.05325 118.323C0.719326 117.989 0.454447 117.592 0.273731 117.156C0.0930153 116.72 0 116.252 0 115.78V3.596C0 1.61 1.61 0 3.596 0H35.078C37.064 0 38.674 1.61 38.674 3.596V115.78C38.6743 116.252 38.5814 116.72 38.4008 117.156C38.2202 117.593 37.9553 117.989 37.6213 118.323C37.2874 118.657 36.8908 118.922 36.4544 119.103C36.018 119.283 35.5503 119.376 35.078 119.376V119.376Z" fill="#333333"/>
<path d="M89.752 119.376H58.27C57.7978 119.376 57.3302 119.283 56.8939 119.102C56.4576 118.922 56.0612 118.657 55.7272 118.323C55.3933 117.989 55.1285 117.592 54.9477 117.156C54.767 116.72 54.674 116.252 54.674 115.78V3.596C54.674 1.61 56.284 0 58.27 0H89.752C91.738 0 93.348 1.61 93.348 3.596V115.78C93.3483 116.252 93.2554 116.72 93.0748 117.156C92.8942 117.593 92.6293 117.989 92.2953 118.323C91.9614 118.657 91.5649 118.922 91.1284 119.103C90.692 119.283 90.2243 119.376 89.752 119.376V119.376Z" fill="#333333"/>
</svg>
