<svg width="170" height="170" viewBox="0 0 170 170" fill="none" xmlns="http://www.w3.org/2000/svg">
<path d="M85 127.8C108.638 127.8 127.8 108.638 127.8 85C127.8 61.3622 108.638 42.2 85 42.2C61.3622 42.2 42.2 61.3622 42.2 85C42.2 108.638 61.3622 127.8 85 127.8Z" fill="#FFDC6C"/>
<path d="M85 5V28.6" stroke="#F8B26A" stroke-width="9.176" stroke-miterlimit="10" stroke-linecap="round"/>
<path d="M45 15.8L56.8 36.2" stroke="#F8B26A" stroke-width="9.176" stroke-miterlimit="10" stroke-linecap="round"/>
<path d="M15.8 45L36.2001 56.8" stroke="#F8B26A" stroke-width="9.176" stroke-miterlimit="10" stroke-linecap="round"/>
<path d="M5 85H28.6" stroke="#F8B26A" stroke-width="9.176" stroke-miterlimit="10" stroke-linecap="round"/>
<path d="M15.8 125L36.2001 113.2" stroke="#F8B26A" stroke-width="9.176" stroke-miterlimit="10" stroke-linecap="round"/>
<path d="M45 154.2L56.8 133.8" stroke="#F8B26A" stroke-width="9.176" stroke-miterlimit="10" stroke-linecap="round"/>
<path d="M85 165V141.4" stroke="#F8B26A" stroke-width="9.176" stroke-miterlimit="10" stroke-linecap="round"/>
<path d="M125 154.2L113.2 133.8" stroke="#F8B26A" stroke-width="9.176" stroke-miterlimit="10" stroke-linecap="round"/>
<path d="M154.2 125L133.8 113.2" stroke="#F8B26A" stroke-width="9.176" stroke-miterlimit="10" stroke-linecap="round"/>
<path d="M165 85H141.4" stroke="#F8B26A" stroke-width="9.176" stroke-miterlimit="10" stroke-linecap="round"/>
<path d="M154.2 45L133.8 56.8" stroke="#F8B26A" stroke-width="9.176" stroke-miterlimit="10" stroke-linecap="round"/>
<path d="M125 15.8L113.2 36.2" stroke="#F8B26A" stroke-width="9.176" stroke-miterlimit="10" stroke-linecap="round"/>
</svg>
